HIERARCHY
ROOT Hips
{
	OFFSET 0.00000 0.00000 0.00000
	CHANNELS 6 Xposition Yposition Zposition Zrotation Yrotation Xrotation 
	JOINT LHipJoint
	{
		OFFSET 0 0 0
		CHANNELS 3 Zrotation Yrotation Xrotation
		JOINT LeftUpLeg
		{
			OFFSET 1.28858 -1.83292 1.03970
			CHANNELS 3 Zrotation Yrotation Xrotation
			JOINT LeftLeg
			{
				OFFSET 2.47846 -6.80952 0.00000
				CHANNELS 3 Zrotation Yrotation Xrotation
				JOINT LeftFoot
				{
					OFFSET 2.75274 -7.56311 0.00000
					CHANNELS 3 Zrotation Yrotation Xrotation
					JOINT LeftToeBase
					{
						OFFSET 0.12848 -0.35301 1.68223
						CHANNELS 3 Zrotation Yrotation Xrotation
						End Site
						{
							OFFSET 0.00000 -0.00000 0.87311
						}
					}
				}
			}
		}
	}
	JOINT RHipJoint
	{
		OFFSET 0 0 0
		CHANNELS 3 Zrotation Yrotation Xrotation
		JOINT RightUpLeg
		{
			OFFSET -1.31183 -1.83292 1.03970
			CHANNELS 3 Zrotation Yrotation Xrotation
			JOINT RightLeg
			{
				OFFSET -2.44740 -6.72417 0.00000
				CHANNELS 3 Zrotation Yrotation Xrotation
				JOINT RightFoot
				{
					OFFSET -2.67343 -7.34519 0.00000
					CHANNELS 3 Zrotation Yrotation Xrotation
					JOINT RightToeBase
					{
						OFFSET -0.16914 -0.46471 1.77626
						CHANNELS 3 Zrotation Yrotation Xrotation
						End Site
						{
							OFFSET -0.00000 -0.00000 0.92777
						}
					}
				}
			}
		}
	}
	JOINT LowerBack
	{
		OFFSET 0 0 0
		CHANNELS 3 Zrotation Yrotation Xrotation
		JOINT Spine
		{
			OFFSET 0.01249 2.14252 0.03842
			CHANNELS 3 Zrotation Yrotation Xrotation
			JOINT Spine1
			{
				OFFSET -0.02957 2.14199 -0.03751
				CHANNELS 3 Zrotation Yrotation Xrotation
				JOINT Neck
				{
					OFFSET 0 0 0
					CHANNELS 3 Zrotation Yrotation Xrotation
					JOINT Neck1
					{
						OFFSET -0.01678 1.65709 -0.05476
						CHANNELS 3 Zrotation Yrotation Xrotation
						JOINT Head
						{
							OFFSET 0.07912 1.58331 -0.11843
							CHANNELS 3 Zrotation Yrotation Xrotation
							End Site
							{
								OFFSET 0.03298 1.73940 -0.04271
							}
						}
					}
				}
				JOINT LeftShoulder
				{
					OFFSET 0 0 0
					CHANNELS 3 Zrotation Yrotation Xrotation
					JOINT LeftArm
					{
						OFFSET 3.39556 1.16496 0.08673
						CHANNELS 3 Zrotation Yrotation Xrotation
						JOINT LeftForeArm
						{
							OFFSET 5.23910 -0.00000 -0.00000
							CHANNELS 3 Zrotation Yrotation Xrotation
							JOINT LeftHand
							{
								OFFSET 3.31467 -0.00000 0.00000
								CHANNELS 3 Zrotation Yrotation Xrotation
								JOINT LeftFingerBase
								{
									OFFSET 0 0 0
									CHANNELS 3 Zrotation Yrotation Xrotation
									JOINT LeftHandIndex1
									{
										OFFSET 0.96590 -0.00000 0.00000
										CHANNELS 3 Zrotation Yrotation Xrotation
										End Site
										{
											OFFSET 0.77873 -0.00000 0.00000
										}
									}
								}
								JOINT LThumb
								{
									OFFSET 0 0 0
									CHANNELS 3 Zrotation Yrotation Xrotation
									End Site
									{
										OFFSET 0.79062 -0.00000 0.79062
									}
								}
							}
						}
					}
				}
				JOINT RightShoulder
				{
					OFFSET 0 0 0
					CHANNELS 3 Zrotation Yrotation Xrotation
					JOINT RightArm
					{
						OFFSET -3.27193 1.31331 0.33940
						CHANNELS 3 Zrotation Yrotation Xrotation
						JOINT RightForeArm
						{
							OFFSET -5.30252 -0.00000 0.00000
							CHANNELS 3 Zrotation Yrotation Xrotation
							JOINT RightHand
							{
								OFFSET -3.67875 -0.00000 0.00000
								CHANNELS 3 Zrotation Yrotation Xrotation
								JOINT RightFingerBase
								{
									OFFSET 0 0 0
									CHANNELS 3 Zrotation Yrotation Xrotation
									JOINT RightHandIndex1
									{
										OFFSET -0.59481 -0.00000 0.00000
										CHANNELS 3 Zrotation Yrotation Xrotation
										End Site
										{
											OFFSET -0.47955 -0.00000 0.00000
										}
									}
								}
								JOINT RThumb
								{
									OFFSET 0 0 0
									CHANNELS 3 Zrotation Yrotation Xrotation
									End Site
									{
										OFFSET -0.48687 -0.00000 0.48687
									}
								}
							}
						}
					}
				}
			}
		}
	}
}
MOTION
Frames: 5
Frame Time: .0083333
10.8081 19.6278 -3.7985 -4.3714 10.0667 10.6946 0.0000 0.0000 0.0000 -4.4649 -6.6837 -11.5212 15.3037 19.4628 76.1498 0.8066 2.3628 16.3332 0.3669 3.8911 10.7705 0.0000 0.0000 0.0000 22.5238 8.2856 -39.0796 -5.9445 -14.3743 44.7584 -3.0978 10.1756 -31.7874 -0.0608 1.5907 -4.3757 7.5345 -1.2287 1.2220 2.3903 -1.6477 2.2702 -1.7504 -0.7204 1.5223 -1.6244 -2.0954 3.0518 6.6843 -2.3233 -9.3188 2.6009 -1.3615 -3.4720 0.0000 0.0000 0.0000 -80.3336 -3.2526 19.9678 21.3616 -32.2480 -6.2418 -0.0000 0.0000 -176.1730 24.9228 15.5733 7.1109 -7.1250 0.0000 -0.0000 -2.6218 47.0460 -0.1325 0.0000 0.0000 0.0000 85.2602 -6.4595 10.5274 -11.3659 18.8469 -1.8924 0.0000 0.0000 11.8876 1.3015 -48.9116 -0.9810 7.1250 -0.0000 -0.0000 62.9282 -69.3164 -42.0024
10.7943 19.6583 -3.6153 -4.7030 9.6114 10.5750 0.0000 0.0000 0.0000 -3.8514 -6.7751 -13.5887 16.3582 19.6790 79.2973 0.7437 0.3198 16.1927 0.3055 3.5539 9.8248 0.0000 0.0000 0.0000 23.1924 8.3665 -37.7825 -5.7707 -14.2024 44.0542 -3.0842 11.3290 -31.7122 -0.0046 0.4360 -1.1979 7.7963 -1.0281 1.3882 2.5052 -1.3622 2.2364 -1.7746 -0.5792 1.4166 -1.4727 -2.2022 3.2049 6.4114 -2.4789 -9.3733 2.4905 -1.4364 -3.5154 0.0000 -0.0000 0.0000 -80.0794 -2.6255 19.6427 21.2753 -32.1483 -6.1958 -0.0000 0.0000 -175.6710 25.0895 15.6375 7.1930 -7.1250 0.0000 -0.0000 -2.4744 47.1394 -0.1307 0.0000 -0.0000 0.0000 84.9452 -6.1520 11.3957 -11.5455 19.1195 -1.9509 0.0000 0.0000 11.6595 1.6726 -49.0297 -1.2630 7.1250 -0.0000 -0.0000 63.4775 -69.2464 -42.3807
10.7782 19.6879 -3.4306 -5.0078 9.0991 10.5422 0.0000 0.0000 0.0000 -3.2477 -6.8294 -15.7979 17.3586 19.8319 82.2562 0.6592 -1.5031 15.9533 0.2469 3.1977 8.8295 0.0000 0.0000 0.0000 23.8552 8.5658 -36.6322 -5.6087 -14.0381 43.3903 -3.1431 10.9796 -32.0215 -0.0315 1.1448 -3.1474 8.0162 -0.7697 1.3839 2.5773 -1.0209 2.2578 -1.8239 -0.4043 1.4702 -1.5068 -2.2429 3.2720 6.4918 -2.5299 -9.3469 2.5270 -1.4642 -3.5161 0.0000 -0.0000 0.0000 -79.7469 -1.9350 19.3140 21.2282 -32.0938 -6.1707 -0.0000 0.0000 -175.0650 25.2213 15.6157 7.2260 -7.1250 0.0000 -0.0000 -2.3450 47.1348 -0.1236 0.0000 -0.0000 0.0000 84.6600 -5.6416 12.2288 -11.6464 19.2722 -1.9840 0.0000 0.0000 11.5612 2.2302 -49.4146 -1.6940 7.1250 -0.0000 -0.0000 64.7850 -69.2326 -43.4729
10.7674 19.7185 -3.2396 -5.2482 8.6418 10.4874 0.0000 0.0000 0.0000 -2.7723 -6.9410 -17.9307 18.2883 19.9296 84.9897 0.5651 -2.9447 15.5769 0.2235 3.0430 8.3985 0.0000 0.0000 0.0000 24.4734 8.5283 -35.4659 -5.4533 -13.8768 42.7462 -3.2336 10.2506 -32.5040 -0.1507 2.5014 -6.8935 8.2464 -0.5497 1.3338 2.6174 -0.7359 2.2851 -1.9115 -0.2558 1.5519 -1.3303 -2.2799 2.9895 6.3110 -2.5999 -9.0198 2.4192 -1.4894 -3.3473 0.0000 0.0000 0.0000 -79.3556 -1.1854 18.9785 21.1853 -32.0440 -6.1479 -0.0000 0.0000 -174.7790 25.3255 15.5536 7.2319 -7.1250 0.0000 -0.0000 -2.2351 47.0824 -0.1149 0.0000 0.0000 0.0000 84.3849 -5.0930 13.0865 -11.7798 19.4736 -2.0283 0.0000 0.0000 11.4900 2.8026 -49.8336 -2.1424 7.1250 -0.0000 -0.0000 66.1809 -69.2217 -44.6589
10.7624 19.7529 -3.0457 -5.4989 8.2285 10.4041 0.0000 0.0000 0.0000 -2.3517 -7.0581 -20.0232 19.1528 19.9828 87.5223 0.4745 -4.0569 15.1340 0.1793 2.7276 7.5214 0.0000 0.0000 0.0000 25.0308 8.3887 -34.2546 -5.3003 -13.7142 42.1043 -3.2774 10.6872 -32.7257 -0.1547 2.5344 -6.9849 8.5442 -0.3747 1.3378 2.6627 -0.5016 2.2662 -2.0296 -0.1353 1.5519 -1.8961 -2.4888 2.6853 6.7132 -2.9021 -8.6245 2.6490 -1.6259 -3.1304 0.0000 -0.0000 0.0000 -79.0348 -0.4346 18.3555 21.0655 -31.9047 -6.0845 -0.0000 0.0000 -174.6690 25.6262 15.4976 7.3038 -7.1250 0.0000 -0.0000 -1.9391 47.0647 -0.0988 0.0000 -0.0000 0.0000 84.1173 -4.7730 13.9671 -12.1119 19.9722 -2.1403 0.0000 0.0000 11.3325 2.4645 -50.1711 -1.8931 7.1250 -0.0000 -0.0000 66.7564 -69.4768 -45.4700
